<?xml version="1.0" encoding="utf-8"?>
<!-- Generator: Adobe Illustrator 23.0.0, SVG Export Plug-In . SVG Version: 6.00 Build 0)  -->
<svg version="1.1" id="Layer_1" xmlns="http://www.w3.org/2000/svg" xmlns:xlink="http://www.w3.org/1999/xlink" x="0px" y="0px"
	 viewBox="0 0 561.26 232.44" style="enable-background:new 0 0 561.26 232.44;" xml:space="preserve">
<style type="text/css">
	.st0{fill:none;}
	.st1{fill:#9E1D21;}
</style>
<g>
	<path class="st0" d="M273.11,52.56c0.35-0.25,0.7-0.49,1.06-0.74c-1.65-2.09-1.65-2.09-2.51-2.19c0.34,0.65,0.69,1.3,1.03,1.94
		C271.94,52.33,272.93,52.3,273.11,52.56z"/>
	<path class="st0" d="M281.16,64.65c0-0.46,0.01-0.88,0.01-1.37c1.29,0.14,2.33,1.13,3.82,0.31c-0.4-0.88-0.76-1.67-1.12-2.47
		c-0.22,0.2-0.42,0.39-0.78,0.72c-0.65-0.58-1.27-1.14-1.87-1.68c-0.07,0.26-0.17,0.58-0.34,1.2c-0.53-0.5-0.9-0.81-1.22-1.16
		c-0.32-0.36-0.59-0.78-1.06-1.42c0.07,1.1,0.12,1.83,0.19,2.84c-0.64-0.35-1.02-0.57-1.52-0.85c0.48-0.24,0.74-0.37,0.97-0.49
		c-0.52-0.52-0.88-1.09-1.64-1.35c-0.67-0.23-1.21-0.87-1.89-1.39c-0.04,1.05-1.58,0.17-1.48,1.5c0.04,0.6-1.23,1.19-0.17,1.99
		c-0.6,0.48-1.5,0.6-1.75,1.77c0.78-0.15,1.36-0.11,2.03-0.42c0.57-0.26,0.82-1.35,1.62-0.85c0.8,0.5,1.04-0.87,1.91-0.27
		c0.21,0.42,0.44,1.03,0.79,1.57c0.23,0.35,0.69,0.88,0.93,0.82c1.05-0.24,1.52,0.59,2.23,0.99
		C280.92,64.7,281.05,64.66,281.16,64.65z"/>
	<path class="st0" d="M238.85,51.83c-0.94,1.36-3.26,1.73-2.99,3.99c0.76,0.22,1.38,0.4,2,0.59c0.05,0.34,0.11,0.65,0.13,0.96
		c0.01,0.24-0.57,0.35-0.28,0.62c0.29,0.22,0.48,0.36,0.66,0.5c0.57-0.86,0.25-2.22,1.58-2.71c0.19-0.07,0.76-1.04-0.23-1.76
		c0.36-0.26,0.72-0.51,1.03-0.74c-0.28-0.29-0.41-0.42-0.56-0.58c0.38-0.19,0.63-0.32,0.86-0.59
		C240.3,51.96,239.54,52.51,238.85,51.83z"/>
	<path class="st1" d="M326.03,71.38c-0.97-36.43-31.04-65.85-67.48-66.07c-13.01-0.08-25.18,3.51-35.53,9.79
		c-7.77,4.71-8.39,15.74-1.17,21.25c4.83,3.68,11.38,4.16,16.69,1.2c5.88-3.28,12.66-5.15,19.87-5.15
		c23.15,0,41.8,19.23,40.86,42.59c-0.85,20.9-17.66,37.98-38.54,39.13c-7.4,0.41-14.39-1.15-20.52-4.2
		c-7.45-3.71-16.47-1.76-21.72,4.7c-4.74,5.84-5.16,14.08-1.02,20.36l23.75,28.47c10.41,15.82,21.13,16.46,31.53,0.64l41.68-52.85
		c0.03-0.05,0.06-0.1,0.09-0.14l0.88-1.34h-0.02C322.44,98.72,326.41,85.53,326.03,71.38z"/>
	<path class="st1" d="M271.69,197.97c0-8.16-6.61-14.77-14.77-14.77c-8.16,0-14.77,6.61-14.77,14.77c0,8.16,6.61,14.77,14.77,14.77
		C265.07,212.74,271.69,206.13,271.69,197.97z"/>
	<path class="st1" d="M253.08,108.01c0.77,0.5,1.55,1.14,1.65,1.05c0.8-0.73,1.35-0.81,2.32-0.1c0.94,0.68,2.22,0.89,3.61,1.41
		c0.03-0.78,0.05-1.29,0.07-1.75c-1.12-0.22-2.24-0.13-2.92-0.64C256.33,106.86,255,107.12,253.08,108.01z"/>
	<path class="st1" d="M277.62,96.95c-0.11,0.28-0.17,0.59-0.35,1.24c7.85-6.66,12.21-16.93,10.69-27.69
		c-1.74-12.32-10.71-21.87-22.15-25.18c-0.05,0.52-0.31,1,0.58,1.21c0.6,0.14,0.96,0.82,1.09,1.48c0.12,0.61,0.18,1.23,0.27,1.85
		c0.07-0.09,0.14-0.18,0.21-0.27c0.42,0.45,0.84,0.89,1.3,1.38c0.3-0.3,0.5-0.5,0.86-0.86c0.44,0.91,0.84,1.75,1.2,2.5
		c-0.4,0.92-0.81,1.84-1.21,2.74c-0.19-0.1-0.35-0.19-0.5-0.27c-0.21,0.28-0.38,0.45-0.48,0.66c-0.06,0.12-0.02,0.29-0.03,0.44
		c1.48,0.68,1.74,0.98,2.06,2.37c-0.84-0.04-1.69-0.08-2.57-0.12c0.21,2.03,0.41,2.62,1.2,3.68c0.38-0.01,0.74-0.02,1.08-0.04
		c0.23,0.99,0.11,1.87-0.57,2.32c-0.99,0.65,0.07,1.62-0.68,2.42c-1.19,1.29-1.46,3.16-2.3,4.83c0.47,0.15,0.8,0.25,1.27,0.39
		c-0.04,0.55-0.02,1.14-0.14,1.71c-0.22,1.03,0.04,1.91,0.68,2.71c0.41,0.51,0.79,1.06,1.24,1.53c0.53,0.56,1.53,0.52,1.84,1.39
		c0.02,0.06,0.11,0.12,0.18,0.14c0.21,0.07,0.43,0.18,0.63,0.16c0.51-0.07,1.02-0.06,1.45-0.55c0.18-0.2,1.21,0.32,1.37,0.12
		c0.59-0.75,1.4-0.54,2.12-0.72c0.12-0.03,0.28,0.06,0.49,0.11c-0.09,1.36,1.08,0.26,1.59,0.86c-0.05,0.32-0.01,0.8-0.19,1.16
		c-0.28,0.55,0.35,1.28-0.39,1.69c1.18,1.35,0.61,3.1,1.06,4.35c-0.6,1.59-1.4,2.71-1.38,4.42
		C279.2,93.07,278.35,95.05,277.62,96.95z M274.17,51.82c-0.35,0.25-0.7,0.49-1.06,0.74c-0.18-0.26-1.17-0.23-0.42-0.98
		c-0.34-0.65-0.69-1.3-1.03-1.94C272.51,49.74,272.51,49.74,274.17,51.82z M278.61,63.67c-0.24,0.05-0.7-0.48-0.93-0.82
		c-0.35-0.54-0.59-1.15-0.79-1.57c-0.87-0.6-1.11,0.77-1.91,0.27c-0.81-0.5-1.05,0.59-1.62,0.85c-0.67,0.31-1.25,0.26-2.03,0.42
		c0.25-1.18,1.15-1.3,1.75-1.77c-1.06-0.8,0.21-1.39,0.17-1.99c-0.1-1.33,1.45-0.45,1.48-1.5c0.68,0.52,1.21,1.16,1.89,1.39
		c0.75,0.26,1.12,0.83,1.64,1.35c-0.23,0.12-0.49,0.25-0.97,0.49c0.5,0.28,0.89,0.49,1.52,0.85c-0.07-1.01-0.11-1.74-0.19-2.84
		c0.47,0.64,0.74,1.05,1.06,1.42c0.32,0.36,0.69,0.66,1.22,1.16c0.17-0.61,0.27-0.94,0.34-1.2c0.6,0.54,1.22,1.09,1.87,1.68
		c0.36-0.33,0.56-0.52,0.78-0.72c0.36,0.8,0.72,1.6,1.12,2.47c-1.49,0.82-2.53-0.18-3.82-0.31c-0.01,0.49-0.01,0.91-0.01,1.37
		c-0.11,0-0.24,0.05-0.33,0.01C280.13,64.26,279.66,63.43,278.61,63.67z"/>
	<path class="st1" d="M245.41,46.39c-0.03-0.06-0.07-0.11-0.13-0.17c-10.44,4.02-17.95,13.21-19.72,23.94
		c0.35,1.78,0.53,3.6,0.8,5.4c0.01,0.08,0.2,0.13,0.37,0.24c0.01-0.65,0.02-1.25,0.03-1.85c0.09-0.01,0.19-0.01,0.28-0.02
		c0.4,1.27,0.8,2.55,1.25,3.97c0.41,0.31,0.96,0.75,1.54,1.14c0.3,0.2,0.65,0.39,1,0.44c1.57,0.2,3.43,0.76,4.17,1.88
		c0.68,1.03,1.57,1.2,2.23,1.43c0.65-0.28,1.05-0.45,1.45-0.62c-0.07-0.12-0.14-0.35-0.22-0.36c-2.19-0.12-2.19-0.12-2.51-2.18
		c-0.03-0.23-0.08-0.45-0.16-0.87c-0.58-0.12-1.21-0.26-1.99-0.42c0.05-0.81,0.1-1.66,0.16-2.57c-1.59-0.04-0.88,1.91-2.01,2.14
		c-1.1-0.69-1.1-0.69-1.62-4.53c0.44-1.99,2.77-1.33,3.3-2.89c0.62,0.22,1.1,0.38,1.6,0.56c0.03,0.93,0.23,1.81,1.23,2.38
		c-0.19-1.36-0.38-2.65-0.55-3.87c0.16-0.22,0.24-0.36,0.35-0.46c0.95-0.91,2.33-1.55,2.02-3.25c0.66-0.75,0.86-1.86,1.83-2.37
		c0.19-0.1,0.56-0.19,0.56-0.28c-0.01-1.26,1.11-1.42,1.84-2.06c0.82,1.21,1.27-0.23,1.94-0.19c0.03,0,0.07-0.21,0.08-0.25
		c-0.5-0.23-0.96-0.44-1.38-0.63c0.15-0.41,0.28-0.74,0.41-1.09c-0.44-0.14-0.76-0.24-1.08-0.34c0.61-0.23,1.23-0.09,1.77-0.22
		c0.54-0.13,1.01-0.55,1.5-0.85c0.55-0.33,1.1-0.68,1.73-1.06c-0.7-1.43-2.57-1.91-2.62-3.63c-0.53,0.46-0.95,0.83-1.8,1.58
		c0.43-2.27-1.09-2.04-2-2.35c-0.23,0.27-0.49,0.4-0.86,0.59c0.15,0.16,0.27,0.28,0.56,0.58c-0.31,0.22-0.67,0.48-1.03,0.74
		c0.99,0.73,0.43,1.69,0.23,1.76c-1.34,0.49-1.01,1.85-1.58,2.71c-0.19-0.14-0.38-0.28-0.66-0.5c-0.28-0.28,0.3-0.38,0.28-0.62
		c-0.02-0.31-0.08-0.62-0.13-0.96c-0.62-0.18-1.24-0.36-2-0.59c-0.28-2.26,2.05-2.63,2.99-3.99c0.69,0.68,1.45,0.12,2.21,0.28
		c-0.08-0.53-0.14-0.91-0.2-1.37c1.05-0.01,1.2-2.04,2.86-1.12c-0.48,0.75-1.25,1.01-1.81,1.48c0.64,0.32,1.28,0.63,1.93,0.96
		c0.42-0.27,0.85-0.54,1.28-0.82c0.02-0.42,0.04-0.85,0.06-1.31c0.47,0.16,0.95,0.02,1.84-0.54c-0.46-0.24-0.86-0.45-1.23-0.64
		c0.17-0.28,0.27-0.45,0.37-0.62c-0.36-0.27-0.67-0.51-0.93-0.7C245.29,47.06,245.54,46.63,245.41,46.39z"/>
	<path class="st1" d="M254,84.74c-0.15,0.18-0.29,0.36-0.39,0.48c-0.89-1.13-1.8-2.28-2.51-3.17c-1.11-0.06-1.86-0.22-2.59-0.12
		c-0.87,0.12-0.87-0.99-1.75-1.01c-0.51-0.01-1.36-0.35-1.57-1.07c-0.63,0.26-1.16,0.64-1.7,0.65c-0.57,0.01-1.15-0.34-1.7-0.53
		c-0.13,0.15-0.23,0.26-0.36,0.4c-0.14-0.27-0.28-0.53-0.41-0.79c-0.06-0.01-0.15-0.05-0.17-0.03c-1.7,1.81-1.7,1.81-1.46,4.45
		c0.01,0.13-0.09,0.27-0.13,0.41c-0.25,0.98-0.5,1.96-0.74,2.89c0.26,0.68,0.53,1.36,0.77,1.99c0.72,0.79,1.4,1.58,2.14,2.31
		c0.83,0.82,1.1,2.42,2.79,2.1c0.74,0.6,1.76,0.83,2.08,1.99c0.29,1.04,1.03,1.95,1.29,2.99c0.23,0.94,1,1.5,1.26,2.28
		c0.31,0.93,0.79,1.72,1.21,2.56c0.34,0.68,1.15,0.4,1.35,1.2c0.06,0.25,0.23,0.48,0.43,0.69c0.81,0.12,1.62,0.21,2.44,0.26
		c-0.07-0.29-0.11-0.56-0.69-0.53c-0.7,0.04,0.56-0.86-0.38-1.08c-0.51-0.12,0.69-1.07-0.27-1.39c0.04-0.06,0.09-0.12,0.14-0.19
		c0.41-0.13,0.82-0.25,1.3-0.4c-0.25-0.63-0.44-1.13-0.64-1.65c0.36-0.05,0.67-0.09,0.93-0.13c0.29-0.55,0.57-1.06,0.83-1.59
		c0.19-0.39,0.56-0.87,0.47-1.2c-0.41-1.47,0.72-1.98,1.6-2.3c0.87-0.32,1.21-0.72,1.33-1.55c0.12-0.86,0.39-1.7,0.45-2.56
		c0.06-0.8,0.08-1.52,0.83-2.05c0.24-0.17,0.3-0.62,0.4-0.96c0.43-1.5,0.14-1.87-1.51-2.2c-0.27-0.06-0.47-0.45-0.86-0.84
		c-0.68,0.17-1.5,0.38-2.35,0.6C255.61,84.88,254.77,84.88,254,84.74z"/>
	<path class="st1" d="M255.94,44.36c-0.15-0.1-0.3-0.19-0.46-0.27c-1.02,0.05-2.05,0.14-3.09,0.29c-1.59,0.23-3.14,0.56-4.63,1
		c0.01,0.11,0.03,0.21,0.04,0.31c0.51,0.02,0.94,0.04,1.47,0.06c-0.13,0.52-0.22,0.87-0.3,1.19c0.34,0.07,0.59,0.11,1.02,0.19
		c-0.46,0.25-0.71,0.39-0.96,0.53c0.74,0.6-0.43,1.58,0.5,2.25c0.38,0.28,0.38,1.08,0.53,1.55c0.73,0.13,1.37,0.24,2.12,0.37
		c0.17-0.36,0.34-0.76,0.52-1.15c0.42-0.89,0.39-2.17,1.88-2.11c0.41-0.87,1.13-1.16,2.05-1.23c0.27-0.02,0.5-0.52,0.8-0.86
		C256.94,45.75,256.6,44.79,255.94,44.36z"/>
	<path class="st1" d="M260.29,49.34c0.27-0.44,0.49-0.8,0.71-1.17c-0.09-0.15-0.18-0.29-0.27-0.44c-0.88,0.25-1.85,0.1-2.75,0.62
		c0.51,0.52,0.51,0.49,1.07,0.6C259.47,49.04,259.86,49.21,260.29,49.34z"/>
	<path class="st1" d="M234.55,74.93c0.41,0.27,0.83,0.61,0.89,0.56c0.43-0.39,0.72-0.43,1.24-0.05c0.5,0.37,1.19,0.48,1.93,0.75
		c0.02-0.42,0.03-0.69,0.04-0.93c-0.6-0.12-1.2-0.07-1.56-0.34C236.28,74.31,235.57,74.46,234.55,74.93z"/>
	<path class="st1" d="M243.85,75.76c-1.06,0.15-1.65,0.33-2.23,0.29c-0.61-0.04-1.2-0.63-2.08,0.2c0.4,0.37,0.71,0.65,1.03,0.95
		C241.22,76.04,242.65,76.82,243.85,75.76z"/>
	<path class="st1" d="M265.93,53.89c0.11,0.17,0.14,0.41,0.23,0.71c0.46-0.1,0.88-0.2,1.28-0.29c-0.08-0.54-0.13-0.92-0.19-1.31
		c0.9,0.44,0.71,1.63,1.5,2.16c0.3-0.71,0.99-0.57,1.56-0.69c0.09-0.89-0.64-1.28-1.21-1.47c-0.81-0.28-1.4-0.63-1.81-1.39
		c-0.2-0.37-0.67-0.59-1.01-0.89c-0.24,0.32-0.43,0.57-0.6,0.8c0.35,0.36,0.7,0.72,1.05,1.08c-0.45,0.22-0.9,0.44-1.46,0.72
		C265.61,53.61,265.82,53.72,265.93,53.89z"/>
	<path class="st1" d="M245.79,59.15c0.82,0.07,1.59,0.14,2.35,0.2c0.01-0.14,0.04-0.29,0.03-0.43c-0.03-0.22-0.09-0.44-0.13-0.64
		c-0.43-0.14-0.84-0.27-1.23-0.4C246.51,58.27,246.17,58.69,245.79,59.15z"/>
</g>
<g>
	<path class="st1" d="M11.66,208.78V179.8c0-0.09,0.16-0.23,0.48-0.41c0.32-0.18,0.78-0.35,1.39-0.5c0.61-0.15,1.22-0.22,1.84-0.22
		c3.36,0,5.35,1.82,5.97,5.46c2.71-3.91,6.46-5.87,11.25-5.87c4.24,0,7.41,1.3,9.51,3.91c2.11,2.61,3.16,6.02,3.16,10.24v16.37
		c0,3.12-1.45,4.68-4.34,4.68h-1.06c-2.99,0-4.48-1.57-4.48-4.72v-15.02c0-2.3-0.55-4.1-1.64-5.42c-1.09-1.32-2.65-1.98-4.67-1.98
		c-3.46,0-5.97,1.5-7.54,4.51v17.91c0,3.15-1.45,4.72-4.36,4.72h-1.03C13.16,213.46,11.66,211.9,11.66,208.78z"/>
	<path class="st1" d="M50.39,196.37c0-5.22,1.68-9.54,5.04-12.97c3.36-3.43,7.64-5.14,12.83-5.14c5.04,0,9.13,1.59,12.27,4.77
		s4.72,7.29,4.72,12.32v0.68c-0.05,0.93-0.23,1.62-0.56,2.07c-0.33,0.44-0.92,0.67-1.78,0.67H59.33c0.32,2.38,1.38,4.25,3.18,5.61
		c1.8,1.36,4.06,2.04,6.77,2.04c4.49,0,7.71-1.59,9.67-4.76c0.04-0.09,0.45-0.04,1.2,0.14c0.76,0.18,1.53,0.62,2.32,1.32
		c0.79,0.7,1.19,1.59,1.19,2.69c0,2.12-1.34,4.03-4.02,5.74c-2.68,1.71-6.26,2.56-10.75,2.56c-5.61,0-10.09-1.61-13.45-4.84
		C52.07,206.05,50.39,201.75,50.39,196.37z M59.35,193.02h16.82c-0.09-2.37-0.85-4.28-2.27-5.73c-1.42-1.45-3.33-2.17-5.73-2.17
		c-2.28,0-4.23,0.73-5.84,2.2C60.7,188.8,59.71,190.7,59.35,193.02z"/>
	<path class="st1" d="M90.79,208.78V179.8c0-0.09,0.16-0.23,0.48-0.41c0.32-0.18,0.78-0.35,1.39-0.5c0.61-0.15,1.22-0.22,1.84-0.22
		c3.52,0,5.53,1.89,6.04,5.67c1.5-4.05,4.27-6.08,8.32-6.08c1.95,0,3.5,0.5,4.64,1.5c1.14,1,1.71,2.37,1.71,4.11
		c0,1.15-0.26,2.15-0.77,3.01c-0.51,0.86-1.01,1.45-1.5,1.77c-0.49,0.33-0.78,0.44-0.87,0.35c-1.2-1.13-2.69-1.7-4.47-1.72
		c-4.62,0-6.92,3.72-6.92,11.16v10.3c0,3.15-1.45,4.72-4.36,4.72h-1.03C92.29,213.46,90.79,211.9,90.79,208.78z"/>
	<path class="st1" d="M117.48,196.37c0-5.22,1.68-9.54,5.04-12.97c3.36-3.43,7.64-5.14,12.83-5.14c5.04,0,9.13,1.59,12.27,4.77
		s4.72,7.29,4.72,12.32v0.68c-0.05,0.93-0.23,1.62-0.56,2.07c-0.33,0.44-0.92,0.67-1.78,0.67h-23.59c0.32,2.38,1.38,4.25,3.18,5.61
		c1.8,1.36,4.06,2.04,6.77,2.04c4.49,0,7.71-1.59,9.67-4.76c0.04-0.09,0.45-0.04,1.2,0.14c0.76,0.18,1.53,0.62,2.32,1.32
		c0.79,0.7,1.19,1.59,1.19,2.69c0,2.12-1.34,4.03-4.02,5.74c-2.68,1.71-6.26,2.56-10.75,2.56c-5.61,0-10.09-1.61-13.45-4.84
		C119.16,206.05,117.48,201.75,117.48,196.37z M126.43,193.02h16.82c-0.09-2.37-0.85-4.28-2.27-5.73c-1.42-1.45-3.33-2.17-5.73-2.17
		c-2.28,0-4.23,0.73-5.84,2.2C127.79,188.8,126.8,190.7,126.43,193.02z"/>
	<path class="st1" d="M153.89,181.54c-0.09-0.18,0.1-0.51,0.58-0.97c0.48-0.47,1.16-0.91,2.05-1.33c0.89-0.42,1.8-0.63,2.73-0.63
		c2.67,0,4.51,1.66,5.54,4.99l7.42,19.52l6.6-19.45c1.03-3.35,2.84-5.04,5.43-5.06c0.84,0,1.72,0.2,2.63,0.6
		c0.91,0.4,1.61,0.82,2.1,1.26c0.49,0.44,0.69,0.76,0.6,0.94l-15.55,40.4c-1.25,3.21-3.11,4.82-5.57,4.82c-0.89,0-1.78-0.2-2.67-0.6
		c-0.89-0.4-1.57-0.8-2.03-1.21c-0.47-0.41-0.66-0.72-0.56-0.92l5.67-12.85c-1.6-0.18-2.67-0.93-3.21-2.26L153.89,181.54z"/>
	<path class="st1" d="M190.88,196.37c0-5.22,1.68-9.54,5.04-12.97c3.36-3.43,7.64-5.14,12.83-5.14c5.04,0,9.13,1.59,12.27,4.77
		s4.72,7.29,4.72,12.32v0.68c-0.05,0.93-0.23,1.62-0.56,2.07c-0.33,0.44-0.92,0.67-1.78,0.67h-23.59c0.32,2.38,1.38,4.25,3.18,5.61
		c1.8,1.36,4.06,2.04,6.77,2.04c4.49,0,7.71-1.59,9.67-4.76c0.04-0.09,0.45-0.04,1.2,0.14c0.76,0.18,1.53,0.62,2.32,1.32
		c0.79,0.7,1.19,1.59,1.19,2.69c0,2.12-1.34,4.03-4.02,5.74c-2.68,1.71-6.26,2.56-10.75,2.56c-5.61,0-10.09-1.61-13.45-4.84
		C192.56,206.05,190.88,201.75,190.88,196.37z M199.83,193.02h16.82c-0.09-2.37-0.85-4.28-2.27-5.73c-1.42-1.45-3.33-2.17-5.73-2.17
		c-2.28,0-4.23,0.73-5.84,2.2C201.19,188.8,200.2,190.7,199.83,193.02z"/>
</g>
<g>
	<path class="st1" d="M284.56,218.45c0-2.32,0.97-4.26,2.92-5.81c1.95-1.55,4.54-2.55,7.77-3.01c-0.8-0.71-1.2-1.77-1.2-3.18
		c0-1.55,0.77-2.87,2.32-3.96c-2.93-0.84-5.22-2.26-6.88-4.24c-1.66-1.98-2.49-4.33-2.49-7.04c0-3.69,1.46-6.76,4.39-9.21
		c2.93-2.45,6.65-3.67,11.17-3.67c2.6,0,5.07,0.49,7.41,1.47l1.46-2.8c1.24-2.28,2.87-3.42,4.88-3.42c1.03,0,1.95,0.34,2.79,1.01
		c0.83,0.67,1.4,1.35,1.71,2.03c0.31,0.68,0.42,1.07,0.32,1.16l-5.94,5.67c2.03,2.19,3.05,4.73,3.05,7.62c0,3.65-1.42,6.6-4.27,8.85
		s-6.63,3.38-11.35,3.38h-0.48c-0.09,0.19-0.14,0.44-0.14,0.75c0,0.38,0.1,0.71,0.31,0.98c0.21,0.27,0.62,0.52,1.23,0.73
		c0.61,0.21,1.18,0.39,1.71,0.53c0.53,0.14,1.4,0.37,2.61,0.68l2.94,0.77c6.62,1.73,9.93,4.88,9.93,9.44c0,3.3-1.63,5.92-4.88,7.86
		c-3.25,1.94-7.78,2.91-13.58,2.91c-6.12,0-10.61-0.77-13.46-2.31C285.99,224.11,284.56,221.71,284.56,218.45z M293.99,217.87
		c0,2.57,2.82,3.86,8.45,3.86c2.87,0,5.07-0.36,6.59-1.09c1.53-0.73,2.29-1.76,2.29-3.11c0-0.36-0.08-0.71-0.24-1.04
		c-0.16-0.33-0.42-0.63-0.77-0.89c-0.35-0.26-0.71-0.47-1.06-0.63c-0.35-0.16-0.85-0.32-1.48-0.47c-0.63-0.16-1.17-0.29-1.61-0.4
		c-0.44-0.11-1.08-0.27-1.9-0.47c-0.82-0.2-1.43-0.35-1.83-0.45c-2.54,0.18-4.58,0.68-6.13,1.5
		C294.77,215.51,293.99,216.57,293.99,217.87z M297.88,186.44c-1.18,1.17-1.77,2.72-1.77,4.63c0,1.91,0.6,3.46,1.8,4.65
		c1.2,1.19,2.76,1.78,4.68,1.78c1.92,0,3.5-0.59,4.73-1.78c1.23-1.18,1.85-2.73,1.85-4.65c0-1.91-0.62-3.46-1.85-4.63
		c-1.23-1.17-2.84-1.76-4.81-1.76C300.6,184.68,299.06,185.27,297.88,186.44z"/>
	<path class="st1" d="M324.24,168.81c0-1.4,0.49-2.49,1.47-3.28c0.98-0.79,2.34-1.19,4.07-1.19c1.73,0,3.09,0.39,4.07,1.17
		c0.98,0.78,1.47,1.88,1.47,3.31s-0.49,2.54-1.47,3.34c-0.98,0.8-2.34,1.2-4.07,1.2c-1.73,0-3.09-0.4-4.07-1.2
		C324.73,171.37,324.24,170.25,324.24,168.81z M324.82,208.78v-25.33c0-3.17,1.47-4.76,4.41-4.79h1.03c2.94,0,4.42,1.6,4.44,4.79
		v25.33c0,3.12-1.45,4.68-4.34,4.68h-1.06C326.32,213.46,324.82,211.9,324.82,208.78z"/>
	<path class="st1" d="M340.55,196.34c0-5.47,1.47-9.86,4.41-13.15s6.79-4.93,11.55-4.93c2.37,0,4.52,0.49,6.44,1.47
		c1.93,0.98,3.42,2.26,4.49,3.84v-17.75c0-0.14,0.16-0.28,0.48-0.44c0.32-0.16,0.79-0.31,1.41-0.44c0.62-0.14,1.22-0.2,1.82-0.2
		c4.12,0,6.17,2.62,6.17,7.87v36.21c0,3.11-1.44,4.67-4.32,4.67h-1.06c-3,0-4.49-1.52-4.49-4.57v-1.1
		c-2.42,4.19-6.11,6.3-11.07,6.32c-4.67,0-8.48-1.65-11.42-4.94S340.55,201.6,340.55,196.34z M350.08,196.34
		c0,2.99,0.81,5.41,2.44,7.28c1.63,1.87,3.73,2.8,6.31,2.8c2.37,0,4.4-0.76,6.08-2.27c1.69-1.52,2.53-3.46,2.53-5.83v-6.53
		c-1.6-3.65-4.42-5.47-8.48-5.47c-2.71,0-4.87,0.91-6.48,2.73C350.89,190.88,350.08,193.31,350.08,196.34z"/>
	<path class="st1" d="M384.44,168.81c0-1.4,0.49-2.49,1.47-3.28c0.98-0.79,2.34-1.19,4.07-1.19c1.73,0,3.09,0.39,4.07,1.17
		c0.98,0.78,1.47,1.88,1.47,3.31s-0.49,2.54-1.47,3.34c-0.98,0.8-2.34,1.2-4.07,1.2c-1.73,0-3.09-0.4-4.07-1.2
		C384.92,171.37,384.44,170.25,384.44,168.81z M385.02,208.78v-25.33c0-3.17,1.47-4.76,4.41-4.79h1.03c2.94,0,4.42,1.6,4.44,4.79
		v25.33c0,3.12-1.45,4.68-4.34,4.68h-1.06C386.51,213.46,385.02,211.9,385.02,208.78z"/>
	<path class="st1" d="M402.86,208.78v-43.14c0-0.14,0.16-0.28,0.48-0.44c0.32-0.16,0.79-0.31,1.4-0.44
		c0.62-0.14,1.22-0.21,1.81-0.21c4.1,0,6.16,2.63,6.19,7.9v36.33c0,3.12-1.45,4.68-4.34,4.68h-1.06
		C404.35,213.46,402.86,211.9,402.86,208.78z"/>
	<path class="st1" d="M420.43,208.78V179.8c0-0.09,0.16-0.23,0.48-0.41c0.32-0.18,0.78-0.35,1.39-0.5c0.61-0.15,1.22-0.22,1.84-0.22
		c3.36,0,5.35,1.77,5.97,5.32c2.66-3.82,6.17-5.73,10.53-5.73c5.56,0,9.2,2.28,10.93,6.83c2.76-4.56,6.61-6.83,11.55-6.83
		c4.2,0,7.31,1.21,9.32,3.64c2.01,2.43,3.02,5.74,3.02,9.93v16.95c0,3.12-1.45,4.68-4.36,4.68h-1.03c-3,0-4.49-1.57-4.49-4.72
		v-15.46c0-4.66-1.99-6.98-5.98-6.96c-1.39,0-2.69,0.39-3.91,1.15c-1.22,0.77-2.17,1.8-2.85,3.08v18.18c0,3.15-1.45,4.72-4.34,4.72
		h-0.99c-3.03,0-4.55-1.57-4.55-4.72v-15.22c0-4.8-1.95-7.2-5.86-7.2c-1.39,0-2.69,0.39-3.9,1.15c-1.22,0.77-2.18,1.8-2.88,3.08
		v18.18c0,3.15-1.45,4.72-4.36,4.72h-1.03C421.92,213.46,420.43,211.9,420.43,208.78z"/>
	<path class="st1" d="M480.58,196.37c0-5.22,1.68-9.54,5.04-12.97c3.36-3.43,7.64-5.14,12.83-5.14c5.04,0,9.13,1.59,12.27,4.77
		c3.14,3.18,4.72,7.29,4.72,12.32v0.68c-0.05,0.93-0.23,1.62-0.56,2.07c-0.33,0.44-0.92,0.67-1.78,0.67h-23.59
		c0.32,2.38,1.38,4.25,3.18,5.61c1.8,1.36,4.06,2.04,6.77,2.04c4.49,0,7.71-1.59,9.67-4.76c0.04-0.09,0.45-0.04,1.2,0.14
		c0.76,0.18,1.53,0.62,2.32,1.32c0.79,0.7,1.19,1.59,1.19,2.69c0,2.12-1.34,4.03-4.02,5.74c-2.68,1.71-6.26,2.56-10.75,2.56
		c-5.61,0-10.09-1.61-13.46-4.84C482.27,206.05,480.58,201.75,480.58,196.37z M489.54,193.02h16.82c-0.09-2.37-0.85-4.28-2.27-5.73
		c-1.42-1.45-3.33-2.17-5.72-2.17c-2.28,0-4.23,0.73-5.85,2.2C490.9,188.8,489.9,190.7,489.54,193.02z"/>
	<path class="st1" d="M521.26,208.78v-43.14c0-0.14,0.16-0.28,0.48-0.44c0.32-0.16,0.79-0.31,1.4-0.44
		c0.62-0.14,1.22-0.21,1.81-0.21c4.1,0,6.16,2.63,6.19,7.9v36.33c0,3.12-1.45,4.68-4.34,4.68h-1.06
		C522.75,213.46,521.26,211.9,521.26,208.78z"/>
	<path class="st1" d="M538.52,168.81c0-1.4,0.49-2.49,1.47-3.28c0.98-0.79,2.34-1.19,4.07-1.19c1.73,0,3.09,0.39,4.07,1.17
		c0.98,0.78,1.47,1.88,1.47,3.31s-0.49,2.54-1.47,3.34c-0.98,0.8-2.34,1.2-4.07,1.2c-1.73,0-3.09-0.4-4.07-1.2
		C539.01,171.37,538.52,170.25,538.52,168.81z M539.1,208.78v-25.33c0-3.17,1.47-4.76,4.41-4.79h1.03c2.94,0,4.42,1.6,4.44,4.79
		v25.33c0,3.12-1.45,4.68-4.34,4.68h-1.06C540.59,213.46,539.1,211.9,539.1,208.78z"/>
</g>
</svg>
